<svg width="936" height="1112" viewBox="0 0 936 1112" fill="none" xmlns="http://www.w3.org/2000/svg">
<path d="M427.428 276.812C431.465 242.458 436.775 222.828 463.228 185.759C510.256 129.855 546.197 123.942 607.989 113.776L608.596 113.676C695.384 108.798 736.608 151.073 757.22 197.683C777.832 244.293 774.789 326.132 768.611 370.032C762.432 413.932 737.693 528.971 597.206 642.244C635.718 655.794 639.161 653.643 685.62 660.532C730.099 613.38 755.519 578.536 819.599 502.274C883.678 426.013 920.136 320.17 930.252 255.133C940.369 190.095 942.728 113.676 889.028 58.3944C835.328 3.11258 730.569 -4.17402 664.466 3.11261C598.362 10.3992 484.05 55.7068 406.273 121.806C328.496 187.905 290.195 255.133 260.904 349.437C231.613 443.741 248.479 521.098 284.771 617.716C346.401 744.611 422.003 830.713 487.636 872.988C553.269 915.262 599.375 938.025 671.517 1058.34C760.474 917.972 795.557 865.069 864.077 785.187C819.599 730.989 762.102 700.29 649.278 684.921C536.454 669.552 500.127 633.217 478.958 632.349C457.79 631.482 433.395 631.265 425.801 629.097C418.207 626.929 416.096 626.622 410.07 613.38C403.569 589.969 410.07 555.93 410.07 551.053C410.07 546.175 399.764 539.671 399.764 533.167C399.764 526.664 403.232 522.801 410.613 519.076C410.613 519.076 393.798 509.862 393.798 502.274C393.798 494.687 401.391 465.962 399.764 459.458C398.137 452.954 359.625 444.825 366.676 431.817C373.728 418.81 428.76 352.279 435.564 338.597C442.368 324.915 428.388 309.446 427.428 276.812Z" fill="#9875C1"/>
<path d="M374.813 838.301C249.417 911.791 165.783 954.391 60.7512 983.551L0 1112C60.7512 1107.66 269.041 1007.4 432.31 888.163L374.813 838.301Z" fill="#9875C1"/>
</svg>
